<svg width="143" height="143" viewBox="0 0 143 143" fill="none" xmlns="http://www.w3.org/2000/svg">
<path fill-rule="evenodd" clip-rule="evenodd" d="M48.9 30.8658C48.2089 31.9026 47.6667 33.6544 47.6667 35.7519V89.3795C47.6667 90.9598 47.0389 92.4754 45.9215 93.5929C44.8041 94.7103 43.2886 95.3381 41.7083 95.3381C40.1281 95.3381 38.6126 94.7103 37.4952 93.5929C36.3778 92.4754 35.75 90.9598 35.75 89.3795V71.5036C35.75 69.4062 35.2138 67.6543 34.5166 66.6175C33.9446 65.7535 33.4441 65.545 32.7708 65.545C32.1035 65.545 31.597 65.7535 31.025 66.6175C30.3339 67.6543 29.7917 69.4062 29.7917 71.5036V95.3381C29.7917 101.493 33.9625 108.09 42.036 113.47C49.9725 118.767 60.7392 122.152 71.5 122.152C93.3552 122.152 107.25 108.751 107.25 95.3381V71.5036C107.25 69.4062 106.714 67.6543 106.017 66.6175C105.445 65.7535 104.944 65.545 104.271 65.545C103.603 65.545 103.097 65.7535 102.525 66.6175C101.834 67.6543 101.292 69.4062 101.292 71.5036C101.292 73.0839 100.664 74.5995 99.5465 75.717C98.4291 76.8344 96.9136 77.4622 95.3333 77.4622C93.7531 77.4622 92.2376 76.8344 91.1202 75.717C90.0027 74.5995 89.375 73.0839 89.375 71.5036V65.545C89.375 63.4475 88.8387 61.6957 88.1416 60.6589C87.5696 59.7949 87.0691 59.5864 86.3958 59.5864C85.7285 59.5864 85.222 59.7949 84.65 60.6589C83.9589 61.6957 83.4167 63.4475 83.4167 65.545V68.5243C83.4167 70.1046 82.7889 71.6202 81.6715 72.7377C80.5541 73.8551 79.0386 74.4829 77.4583 74.4829C75.8781 74.4829 74.3626 73.8551 73.2452 72.7377C72.1277 71.6202 71.5 70.1046 71.5 68.5243V62.5657C71.5 60.4682 70.9637 58.7164 70.2666 57.6796C69.6946 56.8156 69.1941 56.607 68.5208 56.607C67.8535 56.607 67.347 56.8156 66.775 57.6796C66.0839 58.7164 65.5417 60.4682 65.5417 62.5657V65.545C65.5417 67.1253 64.9139 68.6409 63.7965 69.7584C62.6791 70.8758 61.1636 71.5036 59.5833 71.5036C58.0031 71.5036 56.4876 70.8758 55.3702 69.7584C54.2528 68.6409 53.625 67.1253 53.625 65.545V35.7519C53.625 33.6544 53.0887 31.9026 52.3916 30.8658C51.8196 30.0018 51.3191 29.7932 50.6458 29.7932C49.9785 29.7932 49.472 30.0018 48.9 30.8658ZM65.5417 44.9996V35.7519C65.5417 31.8907 64.5883 27.6839 62.3063 24.2517C59.8991 20.6467 55.9309 17.876 50.6458 17.876C45.3548 17.876 41.3925 20.6467 38.9854 24.2517C36.6974 27.6839 35.75 31.8907 35.75 35.7519V53.9376C34.7707 53.7295 33.772 53.6256 32.7708 53.6277C27.4798 53.6277 23.5175 56.3985 21.1104 60.0035C18.8224 63.4356 17.875 67.6424 17.875 71.5036V95.3381C17.875 107.059 25.6208 116.849 35.4223 123.385C45.3548 130.005 58.4274 134.069 71.5 134.069C97.3115 134.069 119.167 117.677 119.167 95.3381V71.5036C119.167 67.6424 118.213 63.4356 115.931 60.0035C113.524 56.3985 109.556 53.6277 104.271 53.6277C102.299 53.6148 100.347 54.0295 98.5508 54.8433C98.3933 54.5727 98.2284 54.3064 98.0563 54.0448C95.6491 50.4399 91.6809 47.6691 86.3958 47.6691C83.6014 47.6691 81.1763 48.4437 79.1624 49.695C77.8763 48.1174 76.2525 46.8487 74.4107 45.9824C72.5689 45.1161 70.5561 44.6744 68.5208 44.6898C67.4781 44.6898 66.4831 44.797 65.5417 44.9996Z" fill="#5DCBDC"/>
</svg>
