<svg width="164" height="164" viewBox="0 0 164 164" fill="none" xmlns="http://www.w3.org/2000/svg">
<path fill-rule="evenodd" clip-rule="evenodd" d="M109.333 41.002C103.896 41.002 98.682 43.1619 94.8375 47.0066C90.993 50.8513 88.8332 56.0658 88.8332 61.503C88.8332 66.9402 90.993 72.1547 94.8375 75.9994C98.682 79.8441 103.896 82.004 109.333 82.004C114.77 82.004 119.984 79.8441 123.829 75.9994C127.673 72.1547 129.833 66.9402 129.833 61.503C129.833 56.0658 127.673 50.8513 123.829 47.0066C119.984 43.1619 114.77 41.002 109.333 41.002ZM75.1665 61.503C75.1665 55.9333 76.5281 50.448 79.1326 45.5248C81.7371 40.6016 85.5056 36.3898 90.1099 33.2561C94.7142 30.1224 100.015 28.1618 105.55 27.5451C111.085 26.9284 116.687 27.6742 121.868 29.7176C127.049 31.7611 131.652 35.0401 135.277 39.2694C138.901 43.4986 141.436 48.5496 142.662 53.9828C143.888 59.4159 143.767 65.0664 142.31 70.4421C140.853 75.8179 138.104 80.7559 134.302 84.8263C145.895 88.5976 155.917 96.093 162.811 106.147C163.772 107.645 164.112 109.459 163.757 111.203C163.402 112.947 162.38 114.484 160.909 115.486C159.439 116.489 157.635 116.878 155.882 116.571C154.129 116.264 152.565 115.285 151.522 113.842C144.853 104.056 132.69 95.6713 116.167 95.6713C89.9675 95.6713 75.1665 116.678 75.1665 129.84C75.1665 131.652 74.4466 133.39 73.1651 134.672C71.8836 135.953 70.1455 136.673 68.3332 136.673C66.5209 136.673 64.7828 135.953 63.5013 134.672C62.2198 133.39 61.4998 131.652 61.4998 129.84C61.4998 125.111 62.5795 120.068 64.6432 115.099C64.1066 114.752 63.6213 114.331 63.2013 113.849C57.5912 107.466 48.8855 102.505 37.5832 102.505C26.2808 102.505 17.5752 107.466 11.965 113.849C10.7502 115.139 9.08167 115.907 7.31144 115.991C5.54122 116.074 3.8078 115.467 2.477 114.296C1.14621 113.126 0.322132 111.484 0.178687 109.718C0.0352412 107.951 0.583646 106.198 1.70817 104.828C5.74337 100.236 10.6365 96.4752 16.1128 93.7579C11.7375 89.4876 8.73432 84.01 7.4869 78.0247C6.23947 72.0393 6.80442 65.818 9.10959 60.1553C11.4148 54.4926 15.3555 49.6456 20.4285 46.2334C25.5014 42.8212 31.4763 40.9987 37.59 40.9987C43.7037 40.9987 49.6786 42.8212 54.7515 46.2334C59.8245 49.6456 63.7652 54.4926 66.0704 60.1553C68.3756 65.818 68.9405 72.0393 67.6931 78.0247C66.4457 84.01 63.4425 89.4876 59.0672 93.7579C63.8079 96.1109 68.1166 99.2485 71.8113 103.038C76.4524 97.1978 82.226 92.356 88.7853 88.8035C84.5522 85.6222 81.1178 81.4991 78.7541 76.7606C76.3903 72.0222 75.162 66.7984 75.1665 61.503V61.503ZM20.4998 71.7535C20.4998 67.2225 22.2997 62.8771 25.5034 59.6732C28.7072 56.4693 33.0524 54.6693 37.5832 54.6693C42.114 54.6693 46.4592 56.4693 49.6629 59.6732C52.8667 62.8771 54.6665 67.2225 54.6665 71.7535C54.6665 76.2845 52.8667 80.6299 49.6629 83.8338C46.4592 87.0377 42.114 88.8377 37.5832 88.8377C33.0524 88.8377 28.7072 87.0377 25.5034 83.8338C22.2997 80.6299 20.4998 76.2845 20.4998 71.7535Z" fill="#5DCBDC"/>
</svg>
