<svg width="122" height="109" viewBox="0 0 122 109" fill="none" xmlns="http://www.w3.org/2000/svg">
<path d="M57.0083 102.772L22.4123 71.9458C17.7552 67.5104 8.88443 58.1961 6.44497 42.6723C5.145 32.1103 6.6922 24.2655 11.1022 17.8343C16.4246 10.0724 23.9647 6.74583 32.3919 6.08052C38.6014 5.5903 45.1251 7.41112 49.6899 10.2941C53.9035 12.9553 63.5619 23.0412 66.7646 28.1778" stroke="#5DCBDC" stroke-width="12" stroke-linecap="round" stroke-linejoin="round"/>
<path d="M99.5877 71.9448L103.726 76.2896C103.678 76.3354 103.629 76.3804 103.579 76.4245L99.5877 71.9448ZM115.555 42.6714L121.51 43.4043C121.502 43.4706 121.493 43.5368 121.482 43.6028L115.555 42.6714ZM110.898 17.8333L115.846 14.4401L115.846 14.4401L110.898 17.8333ZM89.6081 6.07955L90.0803 0.0981588H90.0803L89.6081 6.07955ZM72.3101 10.2931L69.1062 5.22019L69.1062 5.22019L72.3101 10.2931ZM59.4369 32.0167C57.6837 34.8286 53.9829 35.6868 51.171 33.9336C48.3591 32.1803 47.5009 28.4796 49.2541 25.6677L59.4369 32.0167ZM82.2897 87.3577L78.2982 82.878H78.2982L82.2897 87.3577ZM95.4497 67.6C99.7671 63.4882 107.495 55.3152 109.628 41.7399L121.482 43.6028C118.737 61.0751 108.723 71.5307 103.726 76.2896L95.4497 67.6ZM109.6 41.9384C110.779 32.3598 109.299 26.1115 105.949 21.2264L115.846 14.4401C121.316 22.4177 122.931 31.8589 121.51 43.4043L109.6 41.9384ZM105.949 21.2264C101.854 15.2545 96.1472 12.6145 89.1358 12.0609L90.0803 0.0981588C99.9234 0.875243 109.296 4.88826 115.846 14.4401L105.949 21.2264ZM89.1358 12.0609C84.2663 11.6765 79.0256 13.1483 75.514 15.3661L69.1062 5.22019C74.7242 1.672 82.5308 -0.497845 90.0803 0.0981588L89.1358 12.0609ZM75.514 15.3661C74.0734 16.276 70.821 19.153 67.2487 22.8238C63.7212 26.4488 60.674 30.0326 59.4369 32.0167L49.2541 25.6677C51.2197 22.5151 55.048 18.155 58.6487 14.4549C62.2047 10.8007 66.3332 6.97152 69.1062 5.22019L75.514 15.3661ZM78.2982 82.878L95.5962 67.4651L103.579 76.4245L86.2812 91.8374L78.2982 82.878ZM73.9737 86.7313L78.2982 82.878L86.2812 91.8374L81.9567 95.6907L73.9737 86.7313Z" fill="#5DCBDC"/>
<path d="M77.8545 91.2389L78.7416 64.1831M77.8545 91.2389L78.7416 64.1831" stroke="#5DCBDC" stroke-width="12" stroke-linecap="round" stroke-linejoin="round"/>
<path d="M77.8246 91.3873L105.109 91.9891M77.8246 91.3873L105.109 91.9891" stroke="#5DCBDC" stroke-width="12" stroke-linecap="round" stroke-linejoin="round"/>
<path d="M64.3253 25.072C65.9225 26.0797 68.2125 30.247 68.8755 32.0153C69.5385 33.7835 69.6045 35.7202 69.0634 37.5295C68.5224 39.3388 67.4041 40.9213 65.8792 42.0353C64.3544 43.1494 62.5068 43.7337 60.6187 43.6991C58.7306 43.6646 56.9056 43.013 55.4226 41.8439C53.9395 40.6748 52.8799 39.0524 52.4054 37.2245C51.931 35.3966 52.0678 33.4637 52.7951 31.7209C53.5223 29.9781 55.1522 26.9076 56.7852 25.9591" stroke="#5DCBDC" stroke-width="12"/>
</svg>
