<svg width="41" height="37" viewBox="0 0 41 37" fill="none" xmlns="http://www.w3.org/2000/svg">
<path d="M18.7569 34.0467L7.39165 23.92C5.86172 22.463 2.94757 19.4031 2.14618 14.3033C1.71912 10.8336 2.2274 8.25649 3.67613 6.14373C5.4246 3.59385 7.90164 2.50104 10.6701 2.28248C12.71 2.12144 14.8531 2.7196 16.3527 3.6667C17.7369 4.54094 20.9098 7.85428 21.9619 9.54172" stroke="white" stroke-width="3.94215" stroke-linecap="round" stroke-linejoin="round"/>
<path d="M32.7448 23.9195L34.1042 25.3469C34.0884 25.3619 34.0724 25.3767 34.0561 25.3912L32.7448 23.9195ZM37.9903 14.3029L39.9466 14.5436C39.9439 14.5654 39.9409 14.5872 39.9375 14.6088L37.9903 14.3029ZM36.4603 6.14324L38.086 5.02855L38.086 5.02855L36.4603 6.14324ZM29.4664 2.28199L29.6215 0.317031L29.4664 2.28199ZM23.7838 3.66621L22.7313 1.99968L22.7313 1.99968L23.7838 3.66621ZM19.5548 10.8027C18.9788 11.7264 17.7631 12.0083 16.8393 11.4324C15.9156 10.8564 15.6337 9.64067 16.2096 8.71693L19.5548 10.8027ZM27.0622 28.9829L25.751 27.5113L25.751 27.5112L27.0622 28.9829ZM31.3855 22.4922C32.8038 21.1414 35.3423 18.4565 36.0431 13.9969L39.9375 14.6088C39.0355 20.3487 35.7457 23.7835 34.1042 25.3469L31.3855 22.4922ZM36.034 14.0621C36.4213 10.9154 35.9352 8.86272 34.8347 7.25793L38.086 5.02855C39.883 7.64927 40.4134 10.7508 39.9466 14.5436L36.034 14.0621ZM34.8347 7.25793C33.4895 5.29608 31.6146 4.42879 29.3113 4.24695L29.6215 0.317031C32.8551 0.572313 35.9343 1.89064 38.086 5.02855L34.8347 7.25793ZM29.3113 4.24695C27.7115 4.12066 25.9899 4.60416 24.8363 5.33273L22.7313 1.99968C24.5769 0.834056 27.1414 0.121237 29.6215 0.317031L29.3113 4.24695ZM24.8363 5.33273C24.3631 5.63164 23.2946 6.57678 22.1211 7.7827C20.9622 8.97353 19.9612 10.1509 19.5548 10.8027L16.2096 8.71693C16.8553 7.68128 18.113 6.24894 19.2959 5.0334C20.4641 3.83295 21.8203 2.57502 22.7313 1.99968L24.8363 5.33273ZM25.751 27.5112L31.4336 22.4479L34.0561 25.3912L28.3735 30.4545L25.751 27.5112ZM24.3303 28.7771L25.751 27.5113L28.3735 30.4545L26.9528 31.7204L24.3303 28.7771Z" fill="white"/>
<path d="M25.605 30.2578L25.8964 21.3696M25.605 30.2578L25.8964 21.3696" stroke="white" stroke-width="3.94215" stroke-linecap="round" stroke-linejoin="round"/>
<path d="M25.5952 30.3066L34.5585 30.5043M25.5952 30.3066L34.5585 30.5043" stroke="white" stroke-width="3.94215" stroke-linecap="round" stroke-linejoin="round"/>
<path d="M21.1608 8.52105C21.6854 8.85207 22.4377 10.2211 22.6555 10.802C22.8733 11.3829 22.895 12.0191 22.7173 12.6135C22.5395 13.2078 22.1722 13.7277 21.6712 14.0937C21.1703 14.4597 20.5634 14.6516 19.9431 14.6403C19.3228 14.6289 18.7233 14.4149 18.2361 14.0308C17.7489 13.6467 17.4008 13.1138 17.2449 12.5133C17.0891 11.9128 17.134 11.2778 17.3729 10.7053C17.6118 10.1327 18.1473 9.12406 18.6837 8.81246" stroke="white" stroke-width="3.94215"/>
</svg>
