<svg width="120" height="120" viewBox="0 0 120 120" fill="none" xmlns="http://www.w3.org/2000/svg">
<circle cx="60" cy="60" r="54.5" stroke="#5DCBDC" stroke-width="11"/>
<path d="M7.5 63.4998C16.5675 67.4655 21.7513 68.3896 31.5 63.4998C38.5015 59.4286 40.5147 56.975 43 52.4998C45.3028 45.6308 48.2932 44.2051 57 46.4998C67.5737 49.2129 69.9875 44.1821 71.5 30C72.2559 22.6891 70.6 18.3847 65.5 10.5M55.5 57.5C51.0465 59.031 49.101 60.1932 51.5 65.5C55.6325 69.1113 56.9589 68.1631 59 65.5C60.9623 60.3402 59 57.5 55.5 57.5ZM81 76.5C83 73.3927 81.8287 66.3952 77.5 63.4998C76.253 59.6953 77.1913 58.9642 81 59.5C86.1475 60.2925 87.7743 59.0342 87.5 52.4998C87.9174 46.2732 89.7365 46.9428 93.5 49.5C95.3111 52.0911 95.4406 54.362 94.5 59.5C94.3967 64.6978 95.6826 65.9116 100 65.5C102.362 66.1714 103.227 66.8354 100 71C95.0092 74.4099 92.9079 76.555 91 81C78.1808 86.6364 73.4862 88.1737 81 76.5ZM62 90C65.0273 87.0747 66.1834 87.7166 67.5 92C68.4917 94.5556 69.3011 95.2003 71.5 94C76.0457 93.7553 77.5889 94.6211 77.5 99C75.6929 102.749 73.9924 103.515 70 103C65.765 104.213 64.2206 104.862 62 106L50 111L41 106L50 100.5C57.2873 96.8013 59.0677 94.3716 62 90Z" stroke="#5DCBDC" stroke-width="6" stroke-linecap="round"/>
</svg>
